<?xml version="1.0" encoding="UTF-8" standalone="no"?>
<!DOCTYPE svg PUBLIC "-//W3C//DTD SVG 1.1//EN" "http://www.w3.org/Graphics/SVG/1.1/DTD/svg11.dtd">
<svg width="100%" height="100%" viewBox="0 0 1200 1048" version="1.1" xmlns="http://www.w3.org/2000/svg" xmlns:xlink="http://www.w3.org/1999/xlink" xml:space="preserve" xmlns:serif="http://www.serif.com/" style="fill-rule:evenodd;clip-rule:evenodd;stroke-linejoin:round;stroke-miterlimit:2;">
    <g id="Vertical_Grey" transform="matrix(2.19905,0,0,2.09955,-720.229,-522.966)">
        <g>
            <g>
                <path d="M740.71,276.08L630.44,339.57C587.1,296.22 529.91,318.57 494.63,338.85C458.63,359.57 424.37,396.54 445.81,433.57C464.76,466.29 493.51,459.57 637.81,411.94C657.81,405.42 697.63,391.12 740.24,387.94L740.19,388.05C796.8,387.8 843.41,406.97 865.59,445.28C867.231,448.153 868.72,451.11 870.05,454.14L870.05,277.67C866.455,262.646 852.938,251.944 837.49,251.89L718.49,251.89C727.28,258.581 734.823,266.77 740.77,276.08" style="fill:white;fill-rule:nonzero;"/>
                <path d="M434.73,566.78C434.93,566.43 434.84,566.61 434.73,566.78" style="fill:white;fill-rule:nonzero;"/>
                <path d="M462.66,268.79C473.45,262.59 484.551,256.95 495.92,251.89L362.53,251.89C346.458,251.948 332.567,263.53 329.62,279.33L329.62,415.33C348.36,362.59 395.62,307.44 462.62,268.84" style="fill:white;fill-rule:nonzero;"/>
                <path d="M425.75,696.61C425.56,696.28 425.41,695.93 425.22,695.61L534.67,632.61C579.78,683.84 648.38,663.16 690.11,639.13C729.71,616.33 784.48,571.68 758.39,526.61C718.09,456.99 555.33,570.37 434.74,566.81C396.58,564.37 364.96,550.65 344.39,527.96C339.901,522.622 335.842,516.938 332.25,510.96C331.3,509.23 330.46,507.45 329.62,505.7L329.62,715.59C332.579,731.378 346.467,742.945 362.53,743L482.61,743C457.8,733.17 437.97,717.68 425.75,696.58" style="fill:white;fill-rule:nonzero;"/>
                <path d="M726,706.89C699.319,722.312 670.864,734.438 641.26,743L837.45,743C852.896,742.945 866.409,732.243 870,717.22L870,547.5C850.3,604.71 799,664.86 726,706.89" style="fill:white;fill-rule:nonzero;"/>
            </g>
        </g>
    </g>
</svg>
